<?xml version="1.0" standalone="no"?>
<!DOCTYPE svg PUBLIC "-//W3C//DTD SVG 1.1//EN" "http://www.w3.org/Graphics/SVG/1.1/DTD/svg11.dtd" >
<svg xmlns="http://www.w3.org/2000/svg" xmlns:xlink="http://www.w3.org/1999/xlink" version="1.1">
<metadata></metadata>
<defs>
<font id="source_sans_proitalic" horiz-adv-x="1051" >
<font-face units-per-em="2048" ascent="1536" descent="-512" />
<missing-glyph horiz-adv-x="420" />
<glyph horiz-adv-x="0" />
<glyph horiz-adv-x="682" />
<glyph unicode=" "  horiz-adv-x="420" />
<glyph unicode="&#x09;" horiz-adv-x="420" />
<glyph unicode="&#xa0;" horiz-adv-x="420" />
<glyph unicode="!" horiz-adv-x="617" d="M94 83q0 57 42 105t105 48q50 0 75 -31.5t25 -79.5q0 -57 -39.5 -104.5t-102.5 -47.5q-48 0 -76.5 31t-28.5 79zM224 429l146 840l33 201h169l-41 -201l-190 -840h-117z" />
<glyph unicode="&#x22;" horiz-adv-x="893" d="M280 933l51 336l33 201h165l-42 -201l-92 -336h-115zM644 933l51 336l33 201h165l-42 -201l-92 -336h-115z" />
<glyph unicode="#" horiz-adv-x="1048" d="M52 449l29 120h180l101 330h-176l31 120h184l130 405h111l-127 -405h274l129 405h112l-127 -405h173l-31 -120h-179l-101 -330h178l-31 -120h-187l-140 -449h-114l142 449h-276l-140 -449h-114l143 449h-174zM374 569h279l101 330h-279z" />
<glyph unicode="$" d="M37 180l107 105q51 -66 128 -119t175 -53q121 0 197.5 71t76.5 184q0 79 -35 137t-86.5 105t-113 90t-113 92t-86 110.5t-34.5 145.5q0 81 28 149t79.5 118t121.5 80.5t156 35.5l44 215h123l-46 -226q77 -19 143 -67.5t114 -112.5l-109 -98q-44 63 -107.5 107t-140.5 44 q-105 0 -173 -62.5t-68 -161.5q0 -67 35.5 -116.5t87 -92.5t112 -85.5t111.5 -95t86 -121.5t35 -163q0 -86 -28.5 -160.5t-82 -130.5t-129.5 -89.5t-168 -41.5l-43 -214h-123l44 224q-98 19 -179.5 73.5t-138.5 123.5z" />
<glyph unicode="%" horiz-adv-x="1732" d="M134 899q0 101 26.5 203.5t77.5 186t124.5 135t169.5 51.5q63 0 114 -25.5t85 -70t52.5 -104.5t18.5 -133q0 -103 -26.5 -206t-77.5 -185t-125.5 -134t-168.5 -52q-63 0 -114 26t-84.5 70t-52.5 104.5t-19 133.5zM264 908q0 -101 34.5 -167t116.5 -66q60 0 108.5 42 t81.5 108t50.5 146.5t17.5 159.5q0 101 -35 168t-116 67q-61 0 -109.5 -42t-81.5 -109t-50 -147.5t-17 -159.5zM294 -27l1060 1499h115l-1062 -1499h-113zM980 307q0 101 26.5 203.5t77.5 186t124.5 135t169.5 51.5q63 0 114 -25.5t85 -70t52.5 -104.5t18.5 -133 q0 -103 -26.5 -206t-77.5 -185t-125.5 -134t-168.5 -52q-63 0 -114 26t-84.5 70t-52.5 104.5t-19 133.5zM1110 316q0 -101 34.5 -167t116.5 -66q60 0 108.5 42t81.5 108t50.5 146.5t17.5 159.5q0 101 -35 168t-116 67q-61 0 -109.5 -42t-81.5 -109t-50 -147.5t-17 -159.5z " />
<glyph unicode="&#x26;" horiz-adv-x="1274" d="M33 309q0 88 30.5 159t81 130t116 106t136.5 91q-40 127 -40 248q0 92 30.5 168.5t82 133t119.5 88t145 31.5q119 0 177.5 -67t58.5 -168q0 -83 -34.5 -151t-92 -125.5t-129.5 -107.5t-147 -96q46 -117 116.5 -224t153.5 -194q90 94 156.5 203.5t123.5 236.5h154 q-67 -144 -150.5 -279t-189.5 -249q121 -96 224 -134l-70 -136q-134 44 -270 161q-92 -75 -196.5 -118t-223.5 -43q-165 0 -263.5 91t-98.5 245zM199 331q0 -101 62.5 -162.5t163.5 -61.5q77 0 152.5 31t145.5 86q-85 94 -157.5 207t-122.5 236q-103 -71 -173.5 -149.5 t-70.5 -186.5zM502 1052q0 -84 24 -180q61 38 117 75t97.5 78.5t66.5 89.5t25 108q0 50 -26 86t-83 36q-46 0 -86.5 -21.5t-70 -61t-47 -93.5t-17.5 -117z" />
<glyph unicode="'" horiz-adv-x="529" d="M280 933l51 336l33 201h165l-42 -201l-92 -336h-115z" />
<glyph unicode="(" horiz-adv-x="636" d="M142 291q0 191 34.5 362t99.5 331t160 312.5t217 305.5l98 -55q-232 -295 -350.5 -610.5t-118.5 -662.5q0 -77 5.5 -159t18 -163t30 -157.5t41.5 -139.5l-109 -40q-53 140 -89.5 317t-36.5 359z" />
<glyph unicode=")" horiz-adv-x="642" d="M-96 -328q466 589 466 1271q0 77 -5 160t-16.5 164t-28.5 155.5t-42 137.5l109 42q53 -140 89.5 -318t36.5 -357q0 -193 -34 -363.5t-99.5 -330.5t-161 -312.5t-216.5 -305.5z" />
<glyph unicode="*" horiz-adv-x="882" d="M274 1315l40 88l217 -73l54 232l97 -8l-18 -235l225 31l16 -94l-226 -68l84 -213l-88 -51l-114 193l-176 -166l-69 63l151 193z" />
<glyph unicode="+" d="M105 661v125h384v428h132v-428h383v-125h-386v-435h-131v435h-382z" />
<glyph unicode="," horiz-adv-x="529" d="M-67 -259q104 40 165.5 105.5t76.5 144.5h-4q-50 0 -82 27.5t-32 77.5q0 55 38.5 97.5t101.5 42.5q57 0 88 -39.5t31 -104.5q0 -163 -98.5 -284.5t-261.5 -167.5z" />
<glyph unicode="-" horiz-adv-x="654" d="M77 487l26 128h480l-29 -128h-477z" />
<glyph unicode="." horiz-adv-x="529" d="M50 83q0 57 42 105t105 48q48 0 75 -31.5t27 -79.5q0 -57 -41.5 -104.5t-104.5 -47.5q-48 0 -75.5 31t-27.5 79z" />
<glyph unicode="/" horiz-adv-x="744" d="M-157 -351l950 1907h123l-953 -1907h-120z" />
<glyph unicode="0" d="M92 449q0 195 47 372.5t126.5 311.5t184 212.5t221.5 78.5q81 0 145.5 -37t107 -100.5t65.5 -152.5t23 -189q0 -197 -46 -372.5t-124.5 -309.5t-182.5 -212t-220 -78q-84 0 -148.5 36.5t-108.5 100t-67 150.5t-23 189zM249 443q0 -73 12.5 -134.5t36.5 -106.5t61.5 -70 t87.5 -25q86 0 160.5 76t130 197.5t87.5 271.5t32 299q0 147 -48 242t-150 95q-85 0 -159.5 -76.5t-130 -198t-88 -272.5t-32.5 -298z" />
<glyph unicode="1" d="M57 0l29 140h305l209 1048h-247l21 109q187 27 308 101h129l-255 -1258h285l-26 -140h-758z" />
<glyph unicode="2" d="M-21 0l17 101q211 177 366 311t258 243.5t154.5 205t51.5 197.5q0 97 -55.5 162.5t-172.5 65.5q-70 0 -141.5 -36t-145.5 -104l-85 105q96 83 191.5 128t200.5 45q90 0 159 -25t117.5 -71t72.5 -109.5t24 -137.5q0 -117 -46 -218.5t-136 -209t-227 -229t-317 -280.5h605 l-27 -144h-864z" />
<glyph unicode="3" d="M-19 215l111 88q50 -75 130.5 -132.5t189.5 -57.5q75 0 137 22t107 60.5t70 91t25 116.5q0 55 -21.5 102t-70 82.5t-125 53.5t-187.5 18l25 127q130 0 217.5 26.5t141 68t76.5 93t23 102.5q0 92 -54.5 151t-166.5 59q-63 0 -136.5 -30.5t-137.5 -80.5l-86 111 q182 138 387 138q177 0 271.5 -87.5t94.5 -232.5q0 -134 -81.5 -234.5t-245.5 -146.5v-8q117 -38 181 -117t64 -188q0 -101 -38.5 -181t-106 -137t-162 -88t-203.5 -31q-145 0 -254.5 72t-174.5 170z" />
<glyph unicode="4" d="M17 385l20 115l749 898h184l-175 -877h184l-28 -136h-182l-77 -385h-157l78 385h-596zM224 521h416l81 414q13 63 31.5 135t36.5 144h-9q-44 -61 -86.5 -119t-82.5 -108z" />
<glyph unicode="5" d="M-9 211l110 90q24 -38 52.5 -71t66 -59.5t85.5 -42t109 -15.5q68 0 130.5 27t110.5 76t77 117t29 154q0 136 -69 201.5t-184 65.5q-67 0 -115 -17.5t-119 -54.5l-73 56l176 660h656l-29 -145h-511l-114 -412q37 17 83 30.5t101 13.5q79 0 146 -23t116 -69t76.5 -115 t27.5 -161q0 -125 -44 -226t-116 -171t-167.5 -108.5t-198.5 -38.5q-144 0 -246 69t-166 169z" />
<glyph unicode="6" d="M111 447q0 213 50 392.5t137 310t207 202.5t260 72q113 0 186.5 -53.5t117.5 -123.5l-113 -90q-38 61 -85 94t-115 33q-83 0 -158 -43t-137 -120.5t-107 -188t-67 -248.5q73 83 162.5 122.5t161.5 39.5q155 0 247.5 -96.5t92.5 -266.5q0 -103 -34 -195.5t-95 -162.5 t-143.5 -111t-178.5 -41q-90 0 -161 35.5t-121.5 98t-78.5 150.5t-28 190zM270 443q0 -151 63.5 -244.5t174.5 -93.5q59 0 112 31t92 80t61 113t22 129q0 121 -55.5 192t-167.5 71q-52 0 -137.5 -38.5t-162.5 -138.5q-2 -25 -2 -50v-51z" />
<glyph unicode="7" d="M234 1253l31 145h864l-23 -110q-162 -153 -272.5 -306.5t-186 -311t-124 -324t-84.5 -346.5h-176q46 197 103 367t133 323t174 292.5t232 270.5h-671z" />
<glyph unicode="8" d="M77 337q0 79 27.5 145t72 117.5t103.5 91t123 68.5v8q-61 61 -93 126t-32 150q0 90 33.5 160t90 119.5t130 75.5t156.5 26q65 0 127.5 -19.5t111 -60t77.5 -102t29 -142.5q0 -140 -75 -234.5t-193 -160.5v-8q31 -22 64.5 -53t61 -70t45 -88t17.5 -105q0 -94 -38.5 -169.5 t-102 -128t-147.5 -81.5t-178 -29q-77 0 -150.5 22t-130.5 67t-93 114t-36 161zM230 355q0 -61 21 -108.5t57.5 -80t84.5 -50.5t102 -18q57 0 110.5 19t96.5 52.5t68 85.5t25 117q0 61 -25 107.5t-69 84.5t-100.5 71.5t-117.5 65.5q-112 -61 -182.5 -142.5t-70.5 -203.5z M431 1052q0 -109 64 -175t180 -121q40 27 78 60t68 73t47 87t17 103q0 104 -60 161t-150 57q-48 0 -92 -16t-78 -48t-54 -78t-20 -103z" />
<glyph unicode="9" d="M40 151l113 90q37 -61 84.5 -94.5t117.5 -33.5q82 0 156 43t135.5 121t106 188t67.5 245q-73 -81 -162 -119.5t-158 -38.5q-158 0 -250.5 96.5t-92.5 267.5q0 103 34.5 195t96 162t143.5 110.5t178 40.5q90 0 162 -34.5t123 -97.5t77 -150.5t26 -190.5q0 -215 -49 -393.5 t-137 -308.5t-207 -203t-259 -73q-114 0 -188 54t-117 124zM316 941q0 -124 56 -194t165 -70q27 0 63 8.5t75.5 29.5t80.5 55.5t81 84.5q2 25 2 49.5v51.5q0 150 -63 243.5t-176 93.5q-59 0 -111 -30.5t-90.5 -80t-60.5 -113t-22 -128.5z" />
<glyph unicode=":" horiz-adv-x="529" d="M50 83q0 57 42 105t105 48q48 0 75 -31.5t27 -79.5q0 -57 -41.5 -104.5t-104.5 -47.5q-48 0 -75.5 31t-27.5 79zM190 892q0 57 42 105t105 48q48 0 75 -31.5t27 -79.5q0 -57 -41.5 -104.5t-104.5 -47.5q-48 0 -75.5 31t-27.5 79z" />
<glyph unicode=";" horiz-adv-x="529" d="M-67 -259q104 40 165.5 105.5t76.5 144.5h-4q-50 0 -82 27.5t-32 77.5q0 55 38.5 97.5t101.5 42.5q57 0 88 -39.5t31 -104.5q0 -163 -98.5 -284.5t-261.5 -167.5zM190 892q0 57 42 105t105 48q48 0 75 -31.5t27 -79.5q0 -57 -41.5 -104.5t-104.5 -47.5q-48 0 -75.5 31 t-27.5 79z" />
<glyph unicode="&#x3c;" d="M101 659v127l903 366v-142l-445 -175l-274 -105v-9l274 -108l445 -172v-146z" />
<glyph unicode="=" d="M105 429v125h899v-125h-899zM105 893v125h899v-125h-899z" />
<glyph unicode="&#x3e;" d="M105 295v146l447 172l272 108v9l-272 105l-447 175v142l903 -366v-127z" />
<glyph unicode="?" horiz-adv-x="895" d="M207 83q0 57 41 105t105 48q48 0 74.5 -31.5t26.5 -79.5q0 -57 -41 -104.5t-104 -47.5q-48 0 -75 31t-27 79zM243 1343q63 65 152.5 108.5t187.5 43.5q153 0 243 -80.5t90 -222.5q0 -90 -31.5 -158t-80 -124.5t-105.5 -108.5t-107.5 -106.5t-86.5 -119.5t-43 -148 l-144 14q4 92 39.5 163t83.5 129t102.5 107t100.5 99t76.5 103.5t30.5 120.5q0 92 -50 142t-138 50q-63 0 -122.5 -31t-107.5 -82z" />
<glyph unicode="@" horiz-adv-x="1783" d="M98 357q0 226 80.5 418.5t212.5 334t304.5 221.5t356.5 80q155 0 276 -48t204 -134.5t126.5 -206t43.5 -259.5q0 -161 -38 -283.5t-102.5 -207t-148 -127t-171.5 -42.5q-77 0 -129.5 45t-67.5 122h-6q-50 -63 -115 -105t-138 -42q-50 0 -96 20t-79.5 56.5t-54.5 93 t-21 125.5q0 97 33.5 191t92 168t136 119t167.5 45q103 0 161 -113h4l28 94h112l-110 -475q-25 -102 1 -165t113 -63q53 0 108.5 34t99.5 101t73 164t29 222q0 119 -32.5 222t-100.5 177.5t-170.5 117t-242.5 42.5q-149 0 -295 -70t-261 -193.5t-186 -291t-71 -363.5 q0 -147 45 -259.5t120 -190.5t177.5 -117.5t217.5 -39.5q165 0 297 82l50 -101q-175 -94 -360 -94q-142 0 -265 47t-213 136t-142.5 217.5t-52.5 295.5zM669 434q0 -98 42.5 -146.5t105.5 -48.5q99 0 197 133l80 353q-31 57 -61.5 78t-68.5 21q-65 0 -119 -37.5t-93 -94 t-61 -125.5t-22 -133z" />
<glyph unicode="A" horiz-adv-x="1117" d="M-117 0l781 1437h197l167 -1437h-177l-40 449h-508l-230 -449h-190zM370 581h427l-21 245q-11 113 -21 229t-19 240h-8q-57 -125 -113 -237.5t-117 -231.5z" />
<glyph unicode="B" horiz-adv-x="1276" d="M77 0l287 1437h383q209 0 327 -79.5t118 -237.5q0 -72 -27.5 -132.5t-73.5 -106.5t-103 -76.5t-116 -43.5l-2 -10q111 -27 188 -97.5t77 -193.5q0 -121 -45 -207t-126 -142t-190.5 -83.5t-236.5 -27.5h-460zM272 134h249q207 0 327 74t120 244q0 109 -84 175.5t-244 66.5 h-255zM410 820h205q207 0 305.5 76.5t98.5 199.5q0 98 -74.5 153t-239.5 55h-199z" />
<glyph unicode="C" horiz-adv-x="1204" d="M125 554q0 169 53.5 332.5t151 291.5t234.5 207t304 79q125 0 212.5 -60.5t140.5 -152.5l-119 -90q-44 71 -101.5 113.5t-141.5 42.5q-129 0 -232.5 -68t-175.5 -175.5t-111 -240t-39 -264.5q0 -98 20 -180t64 -141.5t114 -93t168 -33.5q87 0 160.5 34.5t142.5 93.5 l78 -109q-80 -70 -180.5 -118.5t-231.5 -48.5q-123 0 -218.5 43t-160 120t-98.5 183t-34 235z" />
<glyph unicode="D" horiz-adv-x="1296" d="M77 0l287 1437h267q301 0 455 -147.5t154 -413.5q0 -194 -53.5 -356.5t-153.5 -277.5t-244.5 -178.5t-326.5 -63.5h-385zM274 140h188q140 0 252 53.5t191 149.5t120.5 229t41.5 294q0 206 -112 319.5t-330 113.5h-119z" />
<glyph unicode="E" horiz-adv-x="1102" d="M77 0l287 1437h793l-28 -142h-625l-92 -467h529l-31 -144h-525l-111 -540h644l-31 -144h-810z" />
<glyph unicode="F" horiz-adv-x="1035" d="M77 0l287 1437h793l-28 -142h-625l-98 -500h527l-28 -144h-526l-132 -651h-170z" />
<glyph unicode="G" horiz-adv-x="1288" d="M125 554q0 171 53.5 334.5t152 292t240.5 206t318 77.5q130 0 218.5 -60.5t143.5 -152.5l-120 -90q-42 71 -102.5 113.5t-147.5 42.5q-136 0 -243 -68t-183 -175.5t-115 -240t-39 -264.5q0 -96 20 -178t66.5 -143.5t119 -95t175.5 -33.5q79 0 140 25t105 63l81 395h-298 l28 141h452l-125 -622q-80 -65 -181.5 -106.5t-226.5 -41.5q-129 0 -229 42t-167.5 118t-101.5 183t-34 238z" />
<glyph unicode="H" horiz-adv-x="1362" d="M77 0l287 1437h171l-123 -607h648l123 607h169l-287 -1437h-170l138 684h-650l-136 -684h-170z" />
<glyph unicode="I" horiz-adv-x="552" d="M77 0l287 1437h171l-288 -1437h-170z" />
<glyph unicode="J" horiz-adv-x="998" d="M-4 195l111 94q31 -79 92.5 -123.5t153.5 -44.5q109 0 177 80.5t97 225.5l201 1010h171l-206 -1034q-17 -92 -54.5 -171t-92 -137t-129 -90t-168.5 -32q-130 0 -218.5 60.5t-134.5 161.5z" />
<glyph unicode="K" horiz-adv-x="1224" d="M77 0l287 1437h171l-142 -709h6l721 709h193l-539 -552l326 -885h-178l-276 776l-299 -293l-100 -483h-170z" />
<glyph unicode="L" horiz-adv-x="1012" d="M77 0l287 1437h171l-259 -1293h605l-28 -144h-776z" />
<glyph unicode="M" horiz-adv-x="1544" d="M77 0l287 1437h203l125 -776l48 -297h9l154 297l427 776h204l-287 -1437h-164l166 811q19 99 48 214t55 209h-9l-172 -320l-424 -763h-96l-134 763l-48 320h-9q-13 -99 -28.5 -211.5t-32.5 -211.5l-163 -811h-159z" />
<glyph unicode="N" horiz-adv-x="1355" d="M77 0l287 1437h171l328 -920l93 -300h8q13 107 27.5 226.5t38.5 231.5l151 762h164l-287 -1437h-169l-324 918l-94 309h-9q-13 -111 -29.5 -227.5t-37.5 -225.5l-154 -774h-164z" />
<glyph unicode="O" horiz-adv-x="1386" d="M132 577q0 165 51 323t143 284.5t220.5 203t283.5 76.5q121 0 214 -43t156 -121.5t95.5 -189.5t32.5 -247q0 -164 -51.5 -324t-143.5 -286t-221.5 -203t-282.5 -77q-121 0 -214 43t-155.5 122t-95 191t-32.5 248zM305 590q0 -105 20 -192t60 -148.5t103.5 -95 t149.5 -33.5q116 0 211.5 67t163.5 171.5t105 234t37 255.5q0 212 -81 340t-252 128q-117 0 -212 -65.5t-163 -171t-105 -234.5t-37 -256z" />
<glyph unicode="P" horiz-adv-x="1204" d="M77 0l287 1437h405q101 0 184.5 -19.5t142.5 -62t92 -108.5t33 -160q0 -131 -47 -227.5t-130.5 -159t-198.5 -92t-253 -29.5h-230l-115 -579h-170zM391 717h207q224 0 339 87.5t115 260.5q0 125 -83.5 181t-240.5 56h-222z" />
<glyph unicode="Q" horiz-adv-x="1386" d="M132 577q0 165 51 323t143 284.5t220.5 203t283.5 76.5q121 0 214 -43t156 -121.5t95.5 -189.5t32.5 -247q0 -157 -47 -311.5t-132.5 -277.5t-205 -204t-264.5 -95q38 -96 130 -142t207 -46q34 0 62 5t59 11l11 -134q-72 -24 -142 -24q-184 0 -315.5 82.5t-186.5 259.5 q-184 42 -278 197t-94 393zM305 590q0 -105 20 -192t60 -148.5t103.5 -95t149.5 -33.5q116 0 211.5 67t163.5 171.5t105 234t37 255.5q0 212 -81 340t-252 128q-117 0 -212 -65.5t-163 -171t-105 -234.5t-37 -256z" />
<glyph unicode="R" horiz-adv-x="1215" d="M77 0l287 1437h395q100 0 182 -18t141.5 -59t92 -104.5t32.5 -153.5q0 -98 -31.5 -179.5t-88.5 -141.5t-134 -99.5t-169 -56.5l253 -625h-182l-237 609h-250l-121 -609h-170zM397 747h216q207 0 316.5 90t109.5 244q0 118 -82.5 169.5t-239.5 51.5h-211z" />
<glyph unicode="S" horiz-adv-x="1108" d="M27 228l124 94q63 -96 156.5 -149.5t213.5 -53.5q65 0 122.5 19t98 54.5t64.5 85.5t24 113q0 79 -49 132.5t-130 103.5l-166 101q-92 56 -157 135.5t-65 201.5q0 81 34 153t93 127.5t141 87t179 31.5q130 0 235 -57t172 -144l-111 -102q-57 65 -133 110.5t-176 45.5 q-61 0 -109.5 -19.5t-82.5 -52.5t-51 -74.5t-17 -85.5q0 -83 53.5 -134.5t132.5 -99.5l166 -100q104 -61 160.5 -138.5t56.5 -198.5q0 -96 -37.5 -177.5t-103 -139t-158 -91t-201.5 -33.5q-149 0 -271 62.5t-208 192.5z" />
<glyph unicode="T" horiz-adv-x="1117" d="M203 1290l29 147h1006l-29 -147h-418l-256 -1290h-171l257 1290h-418z" />
<glyph unicode="U" horiz-adv-x="1349" d="M173 427q0 46 5.5 98t16.5 106l162 806h172l-165 -822q-19 -98 -19 -172q0 -155 70 -238.5t221 -83.5q61 0 117 24t104 76.5t84 135t61 199.5l177 881h166l-179 -887q-31 -155 -82 -265t-121.5 -179t-155 -101t-180.5 -32q-219 0 -336.5 114t-117.5 340z" />
<glyph unicode="V" horiz-adv-x="1086" d="M180 1437h173l59 -797q11 -119 20 -237t15 -236h9q54 117 112.5 236.5t115.5 236.5l397 797h184l-752 -1437h-204z" />
<glyph unicode="W" horiz-adv-x="1656" d="M209 0l19 1437h175l-22 -791q-7 -116 -10 -231.5t-11 -234.5h8q50 119 102.5 235t101.5 231l359 791h156l19 -791q3 -113 3 -230v-236h8q44 119 91.5 235t90.5 231l311 791h169l-591 -1437h-218l-14 878q0 80 1 166.5t5 172.5h-9q-31 -86 -66.5 -169.5t-73.5 -169.5 l-392 -878h-212z" />
<glyph unicode="X" horiz-adv-x="1081" d="M-79 0l552 745l-237 692h185l123 -381q15 -50 28 -97t30 -104h7q37 52 74.5 104.5t70.5 103.5l262 374h180l-519 -705l256 -732h-184l-131 403q-17 55 -34 110.5t-34 113.5h-6q-44 -57 -83.5 -117.5t-77.5 -114.5l-280 -395h-182z" />
<glyph unicode="Y" horiz-adv-x="1010" d="M182 1437h175l99 -414q19 -79 35.5 -153.5t37.5 -156.5h8q50 81 97.5 157.5t99.5 154.5l272 412h182l-601 -876l-114 -561h-168l111 561z" />
<glyph unicode="Z" horiz-adv-x="1121" d="M-2 0l21 103l932 1192h-658l31 142h862l-23 -101l-924 -1192h725l-33 -144h-933z" />
<glyph unicode="[" horiz-adv-x="639" d="M17 -333l378 1885h370l-16 -99h-247l-335 -1687h245l-25 -99h-370z" />
<glyph unicode="\" horiz-adv-x="744" d="M193 1556h114l256 -1907h-118z" />
<glyph unicode="]" horiz-adv-x="642" d="M-107 -333l21 99h243l341 1687h-245l17 99h374l-376 -1885h-375z" />
<glyph unicode="^" horiz-adv-x="1048" d="M182 621l320 847h136l320 -847h-141l-142 389l-98 292h-8l-102 -292l-141 -389h-144z" />
<glyph unicode="_" horiz-adv-x="1058" d="M-79 -272l24 109h1002l-23 -109h-1003z" />
<glyph unicode="`" horiz-adv-x="1132" d="M510 1608l145 108l249 -388l-105 -79z" />
<glyph unicode="a" horiz-adv-x="1175" d="M86 360q0 153 48 286.5t129.5 232t184 155.5t213.5 57q86 0 153 -43.5t104 -116.5h9l41 134h136l-212 -1065h-138l17 157h-8q-77 -83 -173.5 -133.5t-196.5 -50.5q-140 0 -223.5 99t-83.5 288zM259 385q0 -138 52.5 -205t142.5 -67q83 0 169.5 50t165.5 155l96 475 q-46 83 -100.5 120.5t-115.5 37.5q-79 0 -153.5 -47t-132 -126t-91 -181t-33.5 -212z" />
<glyph unicode="b" horiz-adv-x="1173" d="M67 0l312 1560h169l-86 -416l-48 -211h4q80 63 172 110.5t190 47.5q140 0 223.5 -98t83.5 -288q0 -153 -48 -286.5t-128.5 -232t-184 -156t-213.5 -57.5q-86 0 -153 44t-103 117h-8l-42 -134h-140zM289 272q44 -84 99 -121.5t118 -37.5q79 0 153.5 48t130.5 126.5t90 180 t34 214.5q0 135 -51.5 202t-143.5 67q-75 0 -163.5 -46t-164.5 -127z" />
<glyph unicode="c" horiz-adv-x="952" d="M81 401q0 149 49.5 275t132 218.5t189.5 144.5t223 52q96 0 162 -37.5t114 -91.5l-98 -105q-42 50 -83.5 73t-105.5 23q-79 0 -153 -43.5t-132.5 -117t-92 -172.5t-33.5 -208q0 -144 62 -221.5t189 -77.5q71 0 128.5 29t107.5 67l75 -111q-56 -43 -139.5 -84t-202.5 -41 q-176 0 -284 111t-108 317z" />
<glyph unicode="d" horiz-adv-x="1171" d="M86 360q0 153 48 286.5t129.5 232t184 155.5t213.5 57q86 0 149.5 -42.5t103.5 -113.5h6l36 209l83 416h168l-315 -1560h-138l17 157h-8q-77 -83 -173.5 -133.5t-196.5 -50.5q-140 0 -223.5 99t-83.5 288zM259 385q0 -138 52.5 -205t142.5 -67q83 0 168.5 50t166.5 155 l96 475q-46 83 -100.5 120.5t-115.5 37.5q-79 0 -153.5 -47t-132 -126t-91 -181t-33.5 -212z" />
<glyph unicode="e" horiz-adv-x="1053" d="M81 418q0 151 50.5 275t130 213t182 137t207.5 48q89 0 152 -29t102.5 -81t56.5 -123.5t17 -152.5q0 -63 -13 -119.5t-23 -87.5h-694q-7 -47 -7 -88q0 -49 10 -89q18 -74 58.5 -122t99.5 -70t129 -22q63 0 126 28t113 64l65 -111q-63 -46 -150.5 -80.5t-192.5 -34.5 q-191 0 -305 115t-114 330zM268 611h558q4 27 7.5 53t3.5 57q0 46 -11 89t-35 75.5t-63.5 52.5t-96.5 20q-59 0 -115 -24t-104 -70.5t-86.5 -110t-57.5 -142.5z" />
<glyph unicode="f" horiz-adv-x="617" d="M94 0l186 929h-138l25 125l142 11l36 177q33 163 117 254t220 91q56 0 102 -14.5t86 -38.5l-59 -121q-25 15 -53 26.5t-66 11.5q-72 0 -116.5 -55t-62.5 -149l-38 -182h215l-26 -136h-217l-186 -929h-167z" />
<glyph unicode="g" horiz-adv-x="1163" d="M-4 -345l79 117q61 -52 135.5 -89.5t163.5 -37.5q139 0 220 86.5t116 231.5l55 227q-83 -83 -175 -131t-195 -48q-136 0 -222.5 94t-86.5 280q0 147 47 275.5t125.5 223.5t180.5 151t209 56q84 0 152 -43.5t105 -116.5h7l41 134h138l-223 -1115q-44 -213 -171.5 -327 t-328.5 -114q-107 0 -201 41.5t-171 104.5zM259 410q0 -132 50.5 -195.5t139.5 -63.5q77 0 164.5 47t164.5 139l94 456q-50 83 -102.5 120.5t-114.5 37.5q-77 0 -149 -45t-127 -120.5t-87.5 -173t-32.5 -202.5z" />
<glyph unicode="h" horiz-adv-x="1136" d="M67 0l312 1560h169l-105 -515l-35 -133h8q92 77 180 128t186 51q136 0 194.5 -70t58.5 -195q0 -37 -3.5 -70t-15.5 -77l-135 -679h-166l131 657q9 44 13 70.5t4 54.5q0 81 -37 123t-121 42q-63 0 -140.5 -46t-179.5 -147l-151 -754h-167z" />
<glyph unicode="i" horiz-adv-x="518" d="M67 0l213 1065h169l-215 -1065h-167zM316 1385q0 54 38.5 90.5t88.5 36.5q44 0 75.5 -26.5t31.5 -74.5q0 -54 -38.5 -89.5t-88.5 -35.5q-44 0 -75.5 25t-31.5 74z" />
<glyph unicode="j" horiz-adv-x="521" d="M-272 -434l55 125q21 -13 43.5 -20.5t56.5 -7.5q61 0 97.5 52.5t59.5 148.5l242 1201h170l-243 -1199q-31 -153 -104.5 -247t-211.5 -94q-50 0 -88.5 10.5t-76.5 30.5zM318 1385q0 54 37.5 90.5t89.5 36.5q42 0 73.5 -26.5t31.5 -74.5q0 -54 -38.5 -89.5t-88.5 -35.5 q-42 0 -73.5 25t-31.5 74z" />
<glyph unicode="k" horiz-adv-x="1042" d="M67 0l312 1560h169l-211 -1058h4l546 563h194l-426 -444l257 -621h-172l-203 519l-246 -249l-57 -270h-167z" />
<glyph unicode="l" horiz-adv-x="542" d="M96 111q0 36 13 92l270 1357h169l-274 -1365q-4 -17 -4 -26v-16q0 -40 37 -40q7 0 13 2t21 6l4 -130q-22 -8 -46.5 -13t-59.5 -5q-71 0 -107 36.5t-36 101.5z" />
<glyph unicode="m" horiz-adv-x="1750" d="M67 0l211 1065h138l-15 -160h9q83 79 175 132.5t176 53.5q63 0 107 -16.5t72 -43.5t43.5 -65.5t22.5 -82.5q103 98 198 153t178 55q134 0 193.5 -70t59.5 -195q0 -37 -4.5 -70t-13.5 -77l-136 -679h-168l134 657q8 44 12.5 70.5t4.5 54.5q0 165 -155 165 q-46 0 -125.5 -46t-175.5 -147l-151 -754h-167l132 657q8 44 12.5 70.5t4.5 54.5q0 165 -153 165q-48 0 -127 -46t-174 -147l-151 -754h-167z" />
<glyph unicode="n" horiz-adv-x="1150" d="M67 0l211 1065h138l-15 -160h9q92 79 182 132.5t190 53.5q136 0 194.5 -70t58.5 -195q0 -37 -3.5 -70t-15.5 -77l-135 -679h-166l131 657q9 44 13 70.5t4 54.5q0 81 -37 123t-121 42q-63 0 -140.5 -46t-179.5 -147l-151 -754h-167z" />
<glyph unicode="o" horiz-adv-x="1127" d="M86 401q0 151 48 278.5t129.5 218.5t184 142t211.5 51q173 0 277.5 -114t104.5 -313q0 -150 -49 -277.5t-129.5 -218.5t-184.5 -143t-214 -52q-173 0 -275.5 114t-102.5 314zM255 412q0 -144 58 -221.5t170 -77.5q74 0 142.5 43t124 116t88 171t32.5 210q0 144 -58 222 t-170 78q-73 0 -143 -42.5t-124.5 -116t-87 -172.5t-32.5 -210z" />
<glyph unicode="p" horiz-adv-x="1171" d="M-21 -449l301 1514h138l-12 -141h6q81 68 174 117.5t194 49.5q140 0 223.5 -99.5t83.5 -286.5q0 -153 -48 -286.5t-128.5 -232t-184 -156t-213.5 -57.5q-84 0 -149 43t-107 111h-4l-40 -228l-69 -348h-165zM289 268q44 -84 99 -119.5t118 -35.5q79 0 153.5 48 t130.5 126.5t90 180t34 214.5q0 135 -51.5 202t-143.5 67q-75 0 -163.5 -46t-164.5 -129z" />
<glyph unicode="q" horiz-adv-x="1175" d="M86 360q0 153 48 286.5t129.5 232t184 155.5t213.5 57q86 0 153 -43.5t104 -116.5h9l41 134h136l-302 -1514h-169l72 348l66 261h-4q-79 -81 -176.5 -134t-197.5 -53q-140 0 -223.5 99t-83.5 288zM259 385q0 -138 52.5 -205t142.5 -67q75 0 164.5 50t170.5 155l96 475 q-46 83 -100.5 120.5t-115.5 37.5q-79 0 -153.5 -47t-132 -126t-91 -181t-33.5 -212z" />
<glyph unicode="r" horiz-adv-x="749" d="M67 0l211 1065h138l-23 -204h8q63 99 147.5 164.5t183.5 65.5q54 0 100 -20l-58 -149q-36 17 -92 19q-80 0 -162.5 -68t-151.5 -200l-134 -673h-167z" />
<glyph unicode="s" horiz-adv-x="880" d="M-9 175l105 84q51 -71 121 -113.5t153 -42.5q46 0 87 14.5t72.5 38.5t49 55.5t17.5 68.5q0 29 -9.5 53t-31.5 47t-60.5 47.5t-93.5 55.5q-125 67 -184.5 133t-59.5 158q0 70 30 129t79.5 100.5t116 64.5t140.5 23q99 0 177 -39.5t137 -102.5l-97 -94q-43 44 -95.5 74.5 t-125.5 30.5q-86 0 -143.5 -49.5t-57.5 -117.5q0 -33 15.5 -59t41.5 -48t60 -41.5t71 -39.5q73 -40 120 -76t76.5 -72t41.5 -73t12 -81q0 -75 -29.5 -136.5t-83 -104.5t-127 -66t-159.5 -23q-52 0 -106 15.5t-103.5 43t-90 65t-66.5 78.5z" />
<glyph unicode="t" horiz-adv-x="711" d="M132 929l23 125l167 11l79 294h143l-59 -294h269l-26 -136h-274l-126 -609q-6 -40 -6 -79q0 -66 29.5 -99t106.5 -33q31 0 59.5 11.5t51.5 21.5l38 -121q-38 -17 -88 -32.5t-113 -15.5q-71 0 -119 19t-78.5 51t-44 74.5t-13.5 93.5q0 33 3 60.5t9 56.5l124 601h-155z" />
<glyph unicode="u" horiz-adv-x="1156" d="M123 239q0 37 3 69.5t14 76.5l136 680h169l-134 -657q-8 -44 -13 -70.5t-5 -55.5q0 -81 37.5 -122t121.5 -41q63 0 140 46t175 146l151 754h167l-213 -1065h-138l17 163h-8q-88 -77 -179 -133.5t-190 -56.5q-135 0 -193 72t-58 194z" />
<glyph unicode="v" horiz-adv-x="981" d="M129 1065h166l79 -616q9 -77 16 -158.5t16 -158.5h8q38 79 77.5 158.5t80.5 158.5l313 616h169l-567 -1065h-202z" />
<glyph unicode="w" horiz-adv-x="1548" d="M153 1065h167l35 -626q2 -77 3.5 -150.5t3.5 -148.5h8q33 75 62.5 148.5t65.5 150.5l280 626h165l36 -626q4 -77 6 -150.5t6 -148.5h8q31 75 59.5 148.5t63.5 150.5l279 626h157l-484 -1065h-208l-31 583q-3 77 -4 155.5t-3 158.5h-8q-34 -80 -65.5 -159t-64.5 -155 l-259 -583h-201z" />
<glyph unicode="x" horiz-adv-x="939" d="M-96 0l477 565l-199 500h171l92 -237q17 -48 31.5 -91t31.5 -89h9q33 44 68.5 89t67.5 91l186 237h182l-438 -536l217 -529h-173l-96 249q-17 48 -36.5 98t-40.5 100h-9q-35 -50 -72.5 -97t-79.5 -97l-205 -253h-184z" />
<glyph unicode="y" horiz-adv-x="981" d="M-136 -427l55 124q39 -19 79 -19q81 0 152 66t126 177l40 77l-182 1067h167l82 -598q11 -73 20 -157t15 -161h9q37 77 78 159.5t80 158.5l307 598h166l-627 -1155q-42 -79 -87 -146t-99.5 -116t-117.5 -77.5t-140 -28.5q-24 0 -58 6.5t-65 24.5z" />
<glyph unicode="z" horiz-adv-x="897" d="M-21 0l17 96l707 833h-484l28 136h696l-19 -99l-707 -830h557l-27 -136h-768z" />
<glyph unicode="{" horiz-adv-x="634" d="M71 554l23 110q55 0 93.5 15t63.5 40.5t38.5 56.5t19.5 61q19 105 31.5 206t36.5 213q15 86 39.5 142.5t58 90.5t82 48.5t114.5 14.5h100l-22 -99h-57q-87 0 -124 -50.5t-60 -155.5q-17 -95 -31.5 -194.5t-33.5 -199.5q-21 -107 -64.5 -166.5t-119.5 -79.5v-9 q52 -17 74 -51t22 -83q0 -56 -17.5 -136.5t-39.5 -164.5t-39.5 -161t-17.5 -129q0 -55 25 -81t96 -26h52l-21 -99h-98q-102 0 -147 42t-45 134q0 61 18.5 141.5t41.5 165t42 159t19 122.5q0 22 -6.5 45.5t-23 40t-47 27t-76.5 10.5z" />
<glyph unicode="|" horiz-adv-x="506" d="M209 -548v2192h113v-2192h-113z" />
<glyph unicode="}" horiz-adv-x="642" d="M-113 -333l19 99h57q87 0 125.5 48t58.5 155q17 94 32.5 193t33.5 202q25 109 66 168.5t118 78.5v10q-55 17 -75.5 50.5t-20.5 82.5q0 57 17 136.5t39 163t39.5 160t17.5 129.5q0 57 -24 83.5t-95 26.5h-54l22 99h97q104 0 149 -43t45 -133q0 -61 -18.5 -143.5 t-41.5 -165.5t-41.5 -160t-18.5 -125q0 -21 6.5 -42t23 -37.5t46 -27.5t77.5 -11l-24 -110q-57 0 -95.5 -15.5t-63.5 -40.5t-37 -55.5t-18 -61.5q-19 -105 -31.5 -206.5t-37.5 -216.5q-17 -85 -41 -141t-58 -89t-82.5 -47t-111.5 -14h-100z" />
<glyph unicode="~" d="M98 686q55 103 124 149t138 46q58 0 107.5 -29.5t94.5 -65t85.5 -65t84.5 -29.5q48 0 86.5 32t76.5 102l94 -61q-55 -103 -124.5 -149.5t-136.5 -46.5q-59 0 -109 30t-94.5 65t-85 65t-84.5 30q-48 0 -86.5 -32.5t-75.5 -101.5z" />
<glyph unicode="&#xa2;" d="M171 629q0 136 46 247t121.5 189.5t169.5 124.5t191 54l44 224h108l-44 -226q81 -10 139 -52t102 -92l-103 -99q-38 44 -76.5 70.5t-90.5 34.5l-151 -765q71 4 129.5 31t109.5 64l58 -114q-70 -44 -146.5 -78.5t-177.5 -42.5l-46 -230h-109l46 232q-149 22 -234.5 132 t-85.5 296zM337 657q0 -125 45 -206t137 -104l152 755q-65 -11 -125.5 -48.5t-106.5 -95t-74 -134.5t-28 -167z" />
<glyph unicode="&#xa3;" d="M9 0l20 101q157 77 236.5 210.5t79.5 290.5v19h-211l23 117l178 11q-4 52 -8.5 104t-4.5 96q0 111 34.5 200t93 151.5t141 96.5t178.5 34q112 0 186.5 -53.5t120.5 -128.5l-114 -90q-38 59 -87 96.5t-114 37.5q-121 0 -201 -94.5t-80 -260.5q0 -43 4.5 -90.5t8.5 -98.5 h339l-25 -128h-307q-2 -151 -48 -262.5t-145 -205.5l-2 -9h567l-26 -144h-837z" />
<glyph unicode="&#xa5;" d="M61 353l20 92h342l26 151h-340l20 94h298l-199 708h171l90 -386q15 -73 31.5 -146t33.5 -151h7q50 81 95 154.5t93 142.5l238 386h168l-473 -708h297l-21 -94h-340l-28 -151h341l-21 -92h-343l-69 -353h-167l72 353h-342z" />
<glyph unicode="&#xa8;" horiz-adv-x="1132" d="M444 1378q0 50 33 85.5t79 35.5q40 0 65 -24t25 -68q0 -50 -34 -83.5t-80 -33.5q-38 0 -63 23t-25 65zM852 1378q0 50 33 85.5t79 35.5q40 0 64 -24t24 -68q0 -50 -33 -83.5t-79 -33.5q-38 0 -63 23t-25 65z" />
<glyph unicode="&#xa9;" horiz-adv-x="1456" d="M79 583q0 163 57 315t161 270t250.5 190.5t324.5 72.5q127 0 233.5 -45t182 -125t118.5 -190.5t43 -244.5q0 -163 -57.5 -316t-162 -271t-252 -191t-324.5 -73q-128 0 -233.5 45t-181 125.5t-117.5 192t-42 245.5zM173 594q0 -117 33 -213t95.5 -166.5t153.5 -110 t204 -39.5q153 0 281.5 65t220.5 171.5t143 241t51 272.5q0 117 -33.5 213.5t-97 166.5t-154.5 109t-204 39q-153 0 -280.5 -64.5t-219.5 -170.5t-142.5 -241t-50.5 -273zM395 605q0 120 41 215.5t107 162.5t147 103t161 36q77 0 127 -33t87 -79l-81 -75q-31 38 -65 57.5 t-84 19.5q-53 0 -107.5 -28t-100.5 -79.5t-75 -123t-29 -156.5q0 -119 58.5 -179.5t156.5 -60.5q61 0 111 26t104 60l55 -86q-67 -50 -136.5 -80.5t-156.5 -30.5q-143 0 -231.5 84.5t-88.5 246.5z" />
<glyph unicode="&#xab;" horiz-adv-x="899" d="M88 493l23 136l343 324l61 -64l-312 -341l188 -353l-77 -48zM437 493l23 136l343 324l61 -64l-312 -341l188 -353l-77 -48z" />
<glyph unicode="&#xad;" horiz-adv-x="654" d="M77 487l26 128h480l-29 -128h-477z" />
<glyph unicode="&#xae;" horiz-adv-x="889" d="M160 1079q0 92 33 177t90.5 151.5t138 107.5t174.5 41q73 0 137 -27.5t113 -76.5t78 -117t29 -149q0 -92 -33 -179t-92 -154t-139 -106t-174 -39q-73 0 -137 27.5t-112.5 75.5t-77 116t-28.5 152zM241 1087q0 -65 18.5 -120t55 -97t89 -65t117.5 -23q73 0 137.5 32 t111.5 85.5t74.5 126t27.5 151.5q0 132 -75.5 217t-206.5 85q-75 0 -139 -31.5t-111 -85t-73 -125t-26 -150.5zM370 914l90 443h145q63 0 100.5 -33.5t37.5 -94.5q0 -50 -28.5 -87.5t-78.5 -54.5l61 -173h-88l-48 153h-74l-33 -153h-84zM500 1133h48q50 0 78.5 24t28.5 64 q0 65 -72 65h-54z" />
<glyph unicode="&#xb4;" horiz-adv-x="1132" d="M590 1367l368 335l102 -131l-394 -302z" />
<glyph unicode="&#xb8;" horiz-adv-x="1132" d="M180 -410q131 4 193.5 34.5t66.5 84.5q0 42 -34 63t-117 31l132 203h117l-90 -148q77 -20 105.5 -52t24.5 -86q-9 -105 -113.5 -158t-280.5 -57z" />
<glyph unicode="&#xbb;" horiz-adv-x="899" d="M50 211l310 341l-187 353l80 48l224 -346l-23 -136l-343 -324zM399 211l310 341l-187 353l80 48l224 -346l-23 -136l-343 -324z" />
<glyph unicode="&#x2c6;" horiz-adv-x="1132" d="M394 1319l303 303h182l194 -309l-85 -69l-206 255h-8l-312 -255z" />
<glyph unicode="&#x2da;" horiz-adv-x="1132" d="M523 1398q0 49 19 94t53.5 77.5t82.5 52t104 19.5q90 0 150 -46t60 -133q0 -51 -19.5 -94.5t-53.5 -76.5t-82 -52.5t-105 -19.5q-90 0 -149.5 46t-59.5 133zM638 1405q0 -48 27 -78t78 -30q54 0 95 47t41 111q0 46 -28.5 76.5t-78.5 30.5q-55 0 -94.5 -47t-39.5 -110z " />
<glyph unicode="&#x2dc;" horiz-adv-x="1132" d="M366 1282q27 131 90 214.5t172 83.5q57 0 92 -30t63.5 -63.5t57.5 -63t71 -29.5q50 0 80.5 49.5t47.5 125.5l121 -9q-25 -127 -89.5 -211t-173.5 -84q-57 0 -91.5 29.5t-62.5 63t-57.5 63.5t-71.5 30q-50 0 -80.5 -48t-48.5 -128z" />
<glyph unicode="&#x2000;" horiz-adv-x="858" />
<glyph unicode="&#x2001;" horiz-adv-x="1716" />
<glyph unicode="&#x2002;" horiz-adv-x="858" />
<glyph unicode="&#x2003;" horiz-adv-x="1716" />
<glyph unicode="&#x2004;" horiz-adv-x="572" />
<glyph unicode="&#x2005;" horiz-adv-x="429" />
<glyph unicode="&#x2006;" horiz-adv-x="286" />
<glyph unicode="&#x2007;" horiz-adv-x="286" />
<glyph unicode="&#x2008;" horiz-adv-x="214" />
<glyph unicode="&#x2009;" horiz-adv-x="343" />
<glyph unicode="&#x200a;" horiz-adv-x="95" />
<glyph unicode="&#x2010;" horiz-adv-x="654" d="M77 487l26 128h480l-29 -128h-477z" />
<glyph unicode="&#x2011;" horiz-adv-x="654" d="M77 487l26 128h480l-29 -128h-477z" />
<glyph unicode="&#x2012;" horiz-adv-x="654" d="M77 487l26 128h480l-29 -128h-477z" />
<glyph unicode="&#x2013;" horiz-adv-x="1014" d="M77 493l24 118h834l-25 -118h-833z" />
<glyph unicode="&#x2014;" horiz-adv-x="1684" d="M77 493l24 118h1507l-23 -118h-1508z" />
<glyph unicode="&#x2018;" horiz-adv-x="529" d="M241 1100q0 75 22 139.5t61.5 117t92 92t114.5 65.5l34 -83q-101 -51 -154.5 -124t-53.5 -134h11q46 0 76.5 -25.5t30.5 -71.5q0 -50 -32.5 -87.5t-85.5 -37.5q-50 0 -83 39.5t-33 109.5z" />
<glyph unicode="&#x2019;" horiz-adv-x="529" d="M243 1052q103 50 157 124.5t54 134.5h-11q-48 0 -79 25t-31 73q0 50 33 87.5t88 37.5q50 0 82.5 -39.5t32.5 -109.5q0 -77 -21.5 -140.5t-61 -116t-93.5 -92t-115 -66.5z" />
<glyph unicode="&#x201a;" horiz-adv-x="529" d="M-18 -241q103 50 157 124.5t54 134.5h-11q-48 0 -79 25t-31 73q0 50 33 87.5t88 37.5q50 0 82.5 -39.5t32.5 -109.5q0 -77 -21.5 -140.5t-61 -116t-93.5 -92t-115 -66.5z" />
<glyph unicode="&#x201c;" horiz-adv-x="893" d="M241 1100q0 75 22 139.5t61.5 117t92 92t114.5 65.5l34 -83q-101 -51 -154.5 -124t-53.5 -134h11q46 0 76.5 -25.5t30.5 -71.5q0 -50 -32.5 -87.5t-85.5 -37.5q-50 0 -83 39.5t-33 109.5zM605 1100q0 75 22 139.5t61.5 117t92 92t114.5 65.5l34 -83q-101 -51 -154.5 -124 t-53.5 -134h11q46 0 76.5 -25.5t30.5 -71.5q0 -50 -32.5 -87.5t-85.5 -37.5q-50 0 -83 39.5t-33 109.5z" />
<glyph unicode="&#x201d;" horiz-adv-x="893" d="M243 1052q103 50 157 124.5t54 134.5h-11q-48 0 -79 25t-31 73q0 50 33 87.5t88 37.5q50 0 82.5 -39.5t32.5 -109.5q0 -77 -21.5 -140.5t-61 -116t-93.5 -92t-115 -66.5zM607 1052q103 50 157 124.5t54 134.5h-11q-48 0 -79 25t-31 73q0 50 33 87.5t88 37.5 q50 0 82.5 -39.5t32.5 -109.5q0 -77 -21.5 -140.5t-61 -116t-93.5 -92t-115 -66.5z" />
<glyph unicode="&#x201e;" horiz-adv-x="893" d="M-18 -241q103 50 157 124.5t54 134.5h-11q-48 0 -79 25t-31 73q0 50 33 87.5t88 37.5q50 0 82.5 -39.5t32.5 -109.5q0 -77 -21.5 -140.5t-61 -116t-93.5 -92t-115 -66.5zM344 -241q103 50 157 124.5t54 134.5h-11q-48 0 -79 25t-31 73q0 50 33 87.5t88 37.5 q50 0 82.5 -39.5t32.5 -109.5q0 -77 -21.5 -140.5t-61 -116t-93.5 -92t-115 -66.5z" />
<glyph unicode="&#x2022;" horiz-adv-x="646" d="M90 548q0 52 18.5 104.5t52.5 93t82 67t110 26.5q92 0 152 -64.5t60 -165.5q0 -55 -18 -107.5t-52.5 -93t-82.5 -65.5t-107 -25q-94 0 -154.5 63.5t-60.5 166.5z" />
<glyph unicode="&#x2026;" horiz-adv-x="2103" d="M182 83q0 57 42 105t105 48q48 0 75 -31.5t27 -79.5q0 -57 -41.5 -104.5t-104.5 -47.5q-48 0 -75.5 31t-27.5 79zM903 83q0 57 42 105t105 48q48 0 75 -31.5t27 -79.5q0 -57 -41.5 -104.5t-104.5 -47.5q-48 0 -75.5 31t-27.5 79zM1623 83q0 57 42 105t105 48 q48 0 75 -31.5t27 -79.5q0 -57 -41.5 -104.5t-104.5 -47.5q-48 0 -75.5 31t-27.5 79z" />
<glyph unicode="&#x202f;" horiz-adv-x="343" />
<glyph unicode="&#x2039;" horiz-adv-x="552" d="M88 493l23 136l343 324l61 -64l-312 -341l188 -353l-77 -48z" />
<glyph unicode="&#x203a;" horiz-adv-x="552" d="M50 211l310 341l-187 353l80 48l224 -346l-23 -136l-343 -324z" />
<glyph unicode="&#x205f;" horiz-adv-x="429" />
<glyph unicode="&#x20ac;" d="M44 526l21 87l119 10q4 41 8.5 79t14.5 76h-113l19 88l117 6q38 125 99.5 228t139 176.5t168.5 114t189 40.5q121 0 194.5 -61t119.5 -149l-128 -81q-33 67 -79 110t-122 43q-67 0 -130 -30.5t-115.5 -86.5t-95.5 -133t-71 -169h548l-20 -96h-553q-8 -38 -12.5 -76 t-8.5 -77h460l-22 -99h-442q2 -201 75.5 -307t200.5 -106q77 0 141 36.5t119 89.5l83 -103q-81 -77 -173 -120t-201 -43q-191 0 -301.5 141t-112.5 412h-136z" />
<glyph unicode="&#x2122;" horiz-adv-x="1338" d="M167 1372l23 109h546l-21 -109h-211l-113 -570h-121l113 570h-216zM701 802l136 679h150l50 -252l23 -177h9l88 177l156 252h151l-134 -679h-121l62 307l70 246h-9l-258 -448h-77l-83 448h-9l-24 -246l-64 -307h-116z" />
<glyph unicode="&#x25fc;" horiz-adv-x="1062" d="M0 0v1063h1063v-1063h-1063z" />
</font>
</defs>
</svg>
